<svg width="32" height="32" viewBox="0 0 32 32" fill="none" xmlns="http://www.w3.org/2000/svg">
<g clip-path="url(#clip0_9407_252)">
<path d="M24 0H8C3.58172 0 0 3.58172 0 8V24C0 28.4183 3.58172 32 8 32H24C28.4183 32 32 28.4183 32 24V8C32 3.58172 28.4183 0 24 0Z" fill="#6D28D9"/>
<path d="M8 9H19V12H12V15H17V18H12V23H8V9Z" fill="white"/>
<path d="M22 13C23.3807 13 24.5 11.8807 24.5 10.5C24.5 9.11929 23.3807 8 22 8C20.6193 8 19.5 9.11929 19.5 10.5C19.5 11.8807 20.6193 13 22 13Z" fill="#D9F99D"/>
<path d="M19 23C20.1046 23 21 22.1046 21 21C21 19.8954 20.1046 19 19 19C17.8954 19 17 19.8954 17 21C17 22.1046 17.8954 23 19 23Z" fill="#D9F99D"/>
</g>
<defs>
<clipPath id="clip0_9407_252">
<rect width="32" height="32" fill="white"/>
</clipPath>
</defs>
</svg>
