<svg width="104" height="32" viewBox="0 0 104 32" fill="none" xmlns="http://www.w3.org/2000/svg">
<g clip-path="url(#clip0_9410_720)">
<path d="M24 0H8C3.58172 0 0 3.58172 0 8V24C0 28.4183 3.58172 32 8 32H24C28.4183 32 32 28.4183 32 24V8C32 3.58172 28.4183 0 24 0Z" fill="#6D28D9"/>
<path d="M7.25 9.25H18.25V12.25H11.25V15.25H16.25V18.25H11.25V23.25H7.25V9.25Z" fill="white"/>
<path d="M21.25 13.75C22.6307 13.75 23.75 12.6307 23.75 11.25C23.75 9.86929 22.6307 8.75 21.25 8.75C19.8693 8.75 18.75 9.86929 18.75 11.25C18.75 12.6307 19.8693 13.75 21.25 13.75Z" fill="#D9F99D"/>
<path d="M18.25 23.25C19.3546 23.25 20.25 22.3546 20.25 21.25C20.25 20.1454 19.3546 19.25 18.25 19.25C17.1454 19.25 16.25 20.1454 16.25 21.25C16.25 22.3546 17.1454 23.25 18.25 23.25Z" fill="#D9F99D"/>
</g>
<path d="M40.2822 23V9.90909H49.4868V12.7727H43.8362V15.0227H48.9243V17.8864H43.8362V23H40.2822ZM50.3439 23V9.90909H59.7786V12.7727H53.8979V15.0227H59.2928V17.8864H53.8979V20.1364H59.753V23H50.3439ZM64.6452 9.90909V23H61.0912V9.90909H64.6452ZM65.5215 12.7727V9.90909H76.8994V12.7727H72.9619V23H69.459V12.7727H65.5215ZM77.429 12.7727V9.90909H88.8068V12.7727H84.8693V23H81.3665V12.7727H77.429ZM101.761 16.4545C101.761 17.9119 101.478 19.1413 100.911 20.1428C100.344 21.1399 99.5791 21.8963 98.616 22.4119C97.653 22.9233 96.5791 23.179 95.3944 23.179C94.2013 23.179 93.1231 22.9212 92.1601 22.4055C91.2013 21.8857 90.4385 21.1271 89.8717 20.13C89.3092 19.1286 89.028 17.9034 89.028 16.4545C89.028 14.9972 89.3092 13.7699 89.8717 12.7727C90.4385 11.7713 91.2013 11.0149 92.1601 10.5036C93.1231 9.98793 94.2013 9.73011 95.3944 9.73011C96.5791 9.73011 97.653 9.98793 98.616 10.5036C99.5791 11.0149 100.344 11.7713 100.911 12.7727C101.478 13.7699 101.761 14.9972 101.761 16.4545ZM98.1047 16.4545C98.1047 15.6705 98.0003 15.0099 97.7915 14.473C97.5869 13.9318 97.2822 13.5227 96.8774 13.2457C96.4768 12.9645 95.9825 12.8239 95.3944 12.8239C94.8064 12.8239 94.3099 12.9645 93.9051 13.2457C93.5045 13.5227 93.1998 13.9318 92.991 14.473C92.7865 15.0099 92.6842 15.6705 92.6842 16.4545C92.6842 17.2386 92.7865 17.9013 92.991 18.4425C93.1998 18.9794 93.5045 19.3885 93.9051 19.6697C94.3099 19.9467 94.8064 20.0852 95.3944 20.0852C95.9825 20.0852 96.4768 19.9467 96.8774 19.6697C97.2822 19.3885 97.5869 18.9794 97.7915 18.4425C98.0003 17.9013 98.1047 17.2386 98.1047 16.4545Z" fill="white"/>
<path d="M97.5 23C97.5 21.3431 98.8431 20 100.5 20C102.157 20 103.5 21.3431 103.5 23C103.5 24.6569 102.157 26 100.5 26C98.8431 26 97.5 24.6569 97.5 23Z" fill="#D9F99D"/>
<defs>
<clipPath id="clip0_9410_720">
<rect width="32" height="32" fill="white"/>
</clipPath>
</defs>
</svg>
